<?xml version="1.0" standalone="no"?>
<!DOCTYPE svg PUBLIC "-//W3C//DTD SVG 20010904//EN"
    "http://www.w3.org/TR/2001/REC-SVG-20010904/DTD/svg10.dtd">
<svg version="1.0" xmlns="http://www.w3.org/2000/svg"
    width="1400.000000pt" height="868.000000pt" viewBox="0 0 1400.000000 868.000000"
    preserveAspectRatio="xMidYMid meet">

<g transform="translate(0.000000,868.000000) scale(0.100000,-0.100000)"
fill="#000000" stroke="none">
<path d="M4495 7692 c-3 -3 -5 -69 -5 -147 0 -105 -3 -145 -13 -153 -9 -8
-182 -11 -553 -12 -296 0 -602 -5 -679 -10 -531 -38 -932 -250 -1180 -625
-165 -250 -235 -505 -235 -860 0 -308 56 -551 187 -805 158 -308 384 -543 648
-670 137 -66 227 -90 410 -110 55 -6 108 -13 117 -16 24 -7 12 -32 -26 -51
-65 -33 -195 -144 -292 -249 -137 -150 -200 -228 -354 -449 -270 -385 -616
-855 -752 -1020 -85 -103 -407 -434 -492 -504 -154 -129 -286 -206 -440 -255
-80 -26 -224 -54 -306 -58 -41 -3 -45 -5 -45 -28 l0 -25 295 1 c358 0 470 15
705 91 113 36 324 139 430 209 108 71 308 261 416 396 84 106 311 422 599 838
428 617 526 752 651 895 144 167 235 246 341 298 92 45 175 73 233 79 22 2 30
8 30 23 0 19 -9 20 -257 27 -436 12 -647 52 -871 165 -304 153 -507 409 -609
768 -17 58 -21 110 -25 310 -5 286 12 439 72 620 65 199 146 336 284 479 119
122 221 188 376 244 140 51 193 55 768 59 406 3 542 1 553 -8 12 -10 14 -355
14 -2491 0 -2741 5 -2533 -63 -2663 -35 -67 -129 -167 -197 -210 -68 -43 -143
-65 -260 -78 -94 -11 -105 -14 -105 -32 0 -20 8 -20 878 -23 808 -2 878 -1
884 14 10 28 -21 40 -108 43 -141 4 -249 51 -352 154 -69 69 -117 142 -143
217 -18 53 -19 124 -19 2440 l0 2385 22 57 c49 129 172 265 290 321 l68 32
689 3 c505 2 692 -1 702 -9 12 -10 14 -431 14 -2713 0 -2977 4 -2763 -62
-2890 -20 -38 -65 -94 -118 -147 -123 -125 -205 -160 -405 -177 -87 -7 -90 -8
-90 -32 l0 -25 955 0 955 0 0 25 c0 24 -2 25 -95 33 -52 4 -122 14 -155 23
-182 46 -352 219 -411 419 -17 57 -18 196 -15 2765 2 1875 6 2709 13 2718 9
10 155 12 713 10 l702 -3 76 -39 c143 -72 269 -235 297 -385 14 -75 14 -4678
0 -4752 -23 -123 -111 -253 -226 -335 -85 -61 -175 -91 -287 -97 -90 -4 -114
-14 -104 -41 6 -15 94 -16 884 -14 870 3 878 3 878 23 0 17 -9 21 -70 28 -135
14 -186 26 -253 59 -133 65 -262 227 -291 366 -17 79 -16 5003 1 5020 20 20
964 17 1109 -4 253 -35 427 -121 595 -295 189 -196 291 -419 338 -740 22 -146
22 -491 0 -597 -76 -374 -298 -673 -621 -835 -224 -113 -432 -153 -869 -165
-249 -7 -259 -8 -259 -27 0 -16 9 -21 52 -27 61 -9 174 -50 223 -81 19 -13 47
-28 62 -34 37 -17 163 -138 268 -258 106 -122 202 -251 440 -595 768 -1107
848 -1213 1053 -1398 203 -183 453 -312 747 -387 165 -41 249 -49 560 -49
l295 -1 0 25 c0 23 -4 25 -45 28 -82 4 -226 32 -306 58 -152 49 -283 125 -435
250 -89 74 -380 370 -478 487 -136 163 -416 540 -736 992 -264 373 -421 556
-580 676 -49 37 -100 78 -113 91 l-23 23 48 12 c26 7 67 13 91 13 41 0 162 25
268 55 135 39 336 167 468 298 326 324 496 750 496 1242 0 438 -126 769 -399
1051 -165 170 -393 298 -646 364 -234 60 -262 62 -965 67 -422 3 -649 8 -657
15 -8 7 -13 39 -14 87 -3 144 -12 216 -29 212 -8 -1 -82 -20 -165 -42 -177
-45 -351 -75 -529 -89 -81 -6 -760 -10 -1845 -10 -1878 0 -1824 -1 -2187 60
-100 17 -229 44 -288 59 -58 15 -108 25 -111 23z"/>
</g>
</svg>
